<svg width="27" height="27" viewBox="0 0 27 27" version="1.1" xmlns="http://www.w3.org/2000/svg" xmlns:xlink="http://www.w3.org/1999/xlink">
<title>bell</title>
<desc>Created using Figma</desc>
<g id="Canvas" transform="translate(-2096 -6452)">
<g id="bell">
<g id="Shape">
<use xlink:href="#path0_fill" transform="matrix(0.707107 -0.707107 0.707107 0.707107 2097 6465.46)" fill="#464C5C"/>
<use xlink:href="#path1_stroke" transform="matrix(0.707107 -0.707107 0.707107 0.707107 2097 6465.46)" fill="#464C5C"/>
</g>
</g>
</g>
<defs>
<path id="path0_fill" fill-rule="evenodd" d="M 15.9226 3.06696C 15.5452 3.44439 14.9305 3.44439 14.5495 3.06696C 14.1721 2.68953 14.1721 2.07486 14.5495 1.69383C 14.9269 1.3164 15.5416 1.3164 15.9226 1.69383C 16.3001 2.07486 16.3001 2.68953 15.9226 3.06696L 15.9226 3.06696ZM 14.4775 7.95922C 13.9671 9.24967 12.8851 10.4359 11.8966 11.4244C 10.7643 12.5567 10.3725 14.0269 10.2611 15.1735L 2.43931 7.35174C 3.58598 7.2403 5.05616 6.8485 6.18845 5.71621C 7.17696 4.7277 8.36316 3.64573 9.65361 3.1353C 11.1166 2.55658 12.3567 2.84774 13.5609 4.05192C 14.7651 5.2561 15.0563 6.49623 14.4775 7.95922L 14.4775 7.95922ZM 4.09273 13.5237C 3.3235 12.7544 3.21206 11.5682 3.76922 10.6839L 6.93604 13.8508C 6.04459 14.4043 4.86197 14.2965 4.09273 13.5237L 4.09273 13.5237ZM 16.9181 0.698245C 15.9871 -0.232748 14.481 -0.232748 13.5536 0.698245C 13.2229 1.02895 13.0108 1.43513 12.9137 1.85929C 12.5543 1.69035 12.184 1.57173 11.8066 1.50343C 10.9511 1.34886 10.0525 1.4567 9.13585 1.81616C 7.60456 2.42004 6.28176 3.62063 5.18901 4.71338C 3.57145 6.33094 0.84677 5.93194 0.821608 5.92475C 0.519664 5.87443 0.21772 6.02899 0.0775319 6.30218C -0.0626563 6.57537 -0.00873779 6.90966 0.206936 7.12534L 2.74111 9.65951C 1.64117 11.1153 1.7526 13.2002 3.08259 14.5266C 4.40899 15.853 6.49384 15.968 7.94964 14.868L 10.4838 17.4022C 10.6995 17.6179 11.0338 17.6718 11.307 17.5316C 11.5802 17.3914 11.7347 17.0931 11.6844 16.7875C 11.6844 16.7804 11.5802 16.0902 11.6808 15.2023C 11.8138 14.0305 12.2236 13.0923 12.8958 12.4201C 13.9885 11.3274 15.1891 10.0046 15.793 8.4733C 16.156 7.55669 16.2603 6.65804 16.1057 5.80254C 16.0374 5.42511 15.9188 5.05486 15.7499 4.69541C 16.1776 4.60195 16.5802 4.38627 16.9109 4.05557C 17.8491 3.13536 17.8491 1.62924 16.9181 0.698245L 16.9181 0.698245L 16.9181 0.698245Z"/>
<path id="path1_stroke" d="M 14.5495 3.06696L 14.2843 3.33213L 14.2856 3.33338L 14.5495 3.06696ZM 14.5495 1.69383L 14.2843 1.42867L 14.2831 1.42993L 14.5495 1.69383ZM 15.9226 1.69383L 16.1891 1.42992L 16.1865 1.42741L 15.9226 1.69383ZM 10.2611 15.1735L 9.99593 15.4387L 10.5575 16.0003L 10.6343 15.2098L 10.2611 15.1735ZM 2.43931 7.35174L 2.40304 6.97849L 1.61256 7.05531L 2.17415 7.6169L 2.43931 7.35174ZM 9.65361 3.1353L 9.79154 3.48402L 9.79155 3.48401L 9.65361 3.1353ZM 3.76922 10.6839L 4.03439 10.4188L 3.70231 10.0867L 3.45195 10.484L 3.76922 10.6839ZM 6.93604 13.8508L 7.13386 14.1693L 7.53553 13.9199L 7.2012 13.5856L 6.93604 13.8508ZM 13.5536 0.698245L 13.8187 0.963411L 13.8193 0.962897L 13.5536 0.698245ZM 12.9137 1.85929L 12.7542 2.19868L 13.1755 2.39666L 13.2793 1.94294L 12.9137 1.85929ZM 11.8066 1.50343L 11.8734 1.13442L 11.8733 1.1344L 11.8066 1.50343ZM 9.13585 1.81616L 8.99894 1.46704L 8.99827 1.4673L 9.13585 1.81616ZM 0.821608 5.92475L 0.924628 5.56418L 0.904207 5.55834L 0.883258 5.55485L 0.821608 5.92475ZM 0.206936 7.12534L 0.472101 6.86017L 0.206936 7.12534ZM 2.74111 9.65951L 3.04031 9.88557L 3.23708 9.62515L 3.00627 9.39434L 2.74111 9.65951ZM 3.08259 14.5266L 3.34776 14.2614L 3.3474 14.261L 3.08259 14.5266ZM 7.94964 14.868L 8.21481 14.6029L 7.98401 14.3721L 7.72358 14.5688L 7.94964 14.868ZM 10.4838 17.4022L 10.2186 17.6674L 10.2186 17.6674L 10.4838 17.4022ZM 11.6844 16.7875L 11.3094 16.7875L 11.3094 16.8182L 11.3144 16.8485L 11.6844 16.7875ZM 11.6808 15.2023L 11.3082 15.16L 11.3082 15.1601L 11.6808 15.2023ZM 15.793 8.4733L 15.4443 8.33521L 15.4441 8.33573L 15.793 8.4733ZM 16.1057 5.80254L 16.4747 5.73586L 16.4747 5.73576L 16.1057 5.80254ZM 15.7499 4.69541L 15.6698 4.32905L 15.2105 4.42941L 15.4105 4.85492L 15.7499 4.69541ZM 16.9109 4.05557L 16.6483 3.78784L 16.6457 3.79041L 16.9109 4.05557ZM 15.6575 2.80179C 15.4272 3.03209 15.049 3.03389 14.8134 2.80054L 14.2856 3.33338C 14.8121 3.85489 15.6632 3.85669 16.1878 3.33212L 15.6575 2.80179ZM 14.8147 2.80179C 14.5844 2.5715 14.5826 2.19331 14.8159 1.95774L 14.2831 1.42993C 13.7616 1.95641 13.7598 2.80756 14.2843 3.33212L 14.8147 2.80179ZM 14.8147 1.959C 15.045 1.72871 15.4232 1.72691 15.6587 1.96025L 16.1865 1.42741C 15.6601 0.9059 14.8089 0.904102 14.2843 1.42867L 14.8147 1.959ZM 15.6562 1.95774C 15.8896 2.19331 15.8878 2.5715 15.6575 2.80179L 16.1878 3.33212C 16.7124 2.80756 16.7106 1.95641 16.189 1.42993L 15.6562 1.95774ZM 14.1288 7.82129C 13.65 9.03173 12.6212 10.1695 11.6315 11.1592L 12.1618 11.6895C 13.1491 10.7023 14.2842 9.4676 14.8262 8.09715L 14.1288 7.82129ZM 11.6315 11.1592C 10.4138 12.3769 10.0037 13.9451 9.88785 15.1372L 10.6343 15.2098C 10.7413 14.1086 11.1149 12.7365 12.1618 11.6895L 11.6315 11.1592ZM 10.5263 14.9084L 2.70448 7.08657L 2.17415 7.6169L 9.99593 15.4387L 10.5263 14.9084ZM 2.47558 7.72498C 3.66777 7.60912 5.23596 7.19902 6.45361 5.98137L 5.92328 5.45104C 4.87636 6.49797 3.50418 6.87149 2.40304 6.97849L 2.47558 7.72498ZM 6.45361 5.98137C 7.44333 4.99165 8.5811 3.9628 9.79154 3.48402L 9.51568 2.78659C 8.14523 3.32867 6.91058 4.46375 5.92328 5.45104L 6.45361 5.98137ZM 9.79155 3.48401C 10.4673 3.21672 11.0643 3.16003 11.6187 3.29011C 12.176 3.42087 12.7279 3.74927 13.2957 4.31708L 13.8261 3.78675C 13.1897 3.15039 12.5195 2.73112 11.79 2.55994C 11.0575 2.38807 10.303 2.47516 9.51567 2.7866L 9.79155 3.48401ZM 13.2957 4.31708C 13.8636 4.8849 14.192 5.43687 14.3227 5.99418C 14.4528 6.54857 14.3961 7.14558 14.1288 7.82128L 14.8262 8.09716C 15.1377 7.30987 15.2248 6.55532 15.0529 5.82285C 14.8817 5.09331 14.4624 4.42312 13.8261 3.78675L 13.2957 4.31708ZM 4.3579 13.2585C 3.71428 12.6149 3.62134 11.6221 4.0865 10.8838L 3.45195 10.484C 2.80278 11.5143 2.93271 12.894 3.82757 13.7888L 4.3579 13.2585ZM 3.50406 10.9491L 6.67087 14.1159L 7.2012 13.5856L 4.03439 10.4188L 3.50406 10.9491ZM 6.73821 13.5322C 5.99046 13.9965 5.00086 13.9045 4.35852 13.2591L 3.82695 13.7882C 4.72309 14.6885 6.09871 14.8121 7.13386 14.1693L 6.73821 13.5322ZM 17.1833 0.43308C 16.1061 -0.644076 14.3621 -0.644815 13.2879 0.433594L 13.8193 0.962897C 14.5998 0.179318 15.8681 0.178579 16.6529 0.96341L 17.1833 0.43308ZM 13.2884 0.43308C 12.9052 0.816286 12.6601 1.28648 12.5482 1.77565L 13.2793 1.94294C 13.3615 1.58378 13.5405 1.24161 13.8187 0.96341L 13.2884 0.43308ZM 13.0733 1.51991C 12.685 1.33744 12.2837 1.20866 11.8734 1.13442L 11.7398 1.87244C 12.0844 1.93479 12.4235 2.04325 12.7542 2.19868L 13.0733 1.51991ZM 11.8733 1.1344C 10.9396 0.965715 9.97035 1.0861 8.99894 1.46704L 9.27276 2.16527C 10.1346 1.8273 10.9626 1.73201 11.7399 1.87245L 11.8733 1.1344ZM 8.99827 1.4673C 7.38839 2.10219 6.01831 3.35375 4.92385 4.44822L 5.45418 4.97855C 6.54521 3.88751 7.82073 2.7379 9.27343 2.16501L 8.99827 1.4673ZM 4.92385 4.44822C 4.20008 5.17198 3.21165 5.45886 2.36549 5.55578C 1.94641 5.60379 1.57352 5.60382 1.30448 5.59138C 1.17024 5.58517 1.06277 5.5759 0.989454 5.56817C 0.952771 5.56431 0.924986 5.56086 0.907006 5.55845C 0.897925 5.55723 0.891926 5.55634 0.888913 5.55588C 0.869185 5.55284 0.89662 5.55618 0.924628 5.56418L 0.718588 6.28532C 0.729528 6.28845 0.738266 6.29039 0.74107 6.29101C 0.745091 6.2919 0.748418 6.29257 0.750506 6.29298C 0.754713 6.2938 0.758325 6.29444 0.760631 6.29484C 0.765465 6.29568 0.77031 6.29646 0.774607 6.29712C 0.783479 6.29849 0.794405 6.30006 0.807057 6.30176C 0.832544 6.30518 0.867456 6.30947 0.910845 6.31404C 0.997669 6.32319 1.11983 6.33364 1.26984 6.34058C 1.56931 6.35442 1.9834 6.35445 2.45084 6.30091C 3.3777 6.19474 4.56038 5.87234 5.45418 4.97855L 4.92385 4.44822ZM 0.883258 5.55485C 0.417476 5.47722 -0.0427584 5.71522 -0.256104 6.13097L 0.411168 6.47339C 0.478199 6.34276 0.621852 6.27163 0.759958 6.29465L 0.883258 5.55485ZM -0.256104 6.13097C -0.471052 6.54985 -0.38843 7.0603 -0.0582286 7.3905L 0.472101 6.86017C 0.370954 6.75903 0.345739 6.60089 0.411168 6.47339L -0.256104 6.13097ZM -0.0582286 7.3905L 2.47594 9.92467L 3.00627 9.39434L 0.472101 6.86017L -0.0582286 7.3905ZM 2.44191 9.43345C 1.23097 11.0362 1.35292 13.3312 2.81779 14.7921L 3.3474 14.261C 2.15229 13.0692 2.05137 11.1945 3.04031 9.88557L 2.44191 9.43345ZM 2.81743 14.7917C 4.27783 16.2521 6.57251 16.3785 8.1757 15.1672L 7.72358 14.5688C 6.41517 15.5574 4.54015 15.4538 3.34776 14.2614L 2.81743 14.7917ZM 7.68448 15.1332L 10.2186 17.6674L 10.749 17.137L 8.21481 14.6029L 7.68448 15.1332ZM 10.2186 17.6674C 10.5489 17.9976 11.0593 18.0802 11.4782 17.8653L 11.1358 17.198C 11.0083 17.2634 10.8501 17.2382 10.749 17.137L 10.2186 17.6674ZM 11.4782 17.8653C 11.8935 17.6522 12.1317 17.196 12.0544 16.7266L 11.3144 16.8485C 11.3377 16.9901 11.2669 17.1307 11.1358 17.198L 11.4782 17.8653ZM 12.0594 16.7875C 12.0594 16.6949 11.9548 16.1143 12.0534 15.2446L 11.3082 15.1601C 11.2055 16.0661 11.3094 16.8658 11.3094 16.7875L 12.0594 16.7875ZM 12.0534 15.2446C 12.1792 14.1363 12.562 13.2842 13.1609 12.6853L 12.6306 12.155C 11.8852 12.9004 11.4484 13.9247 11.3082 15.16L 12.0534 15.2446ZM 13.1609 12.6853C 14.2554 11.5908 15.507 10.2208 16.1418 8.61088L 15.4441 8.33573C 14.8712 9.78842 13.7216 11.0639 12.6306 12.155L 13.1609 12.6853ZM 16.1416 8.61139C 16.5271 7.63827 16.6433 6.66868 16.4747 5.73586L 15.7367 5.86921C 15.8773 6.64741 15.785 7.4751 15.4443 8.33521L 16.1416 8.61139ZM 16.4747 5.73576C 16.4005 5.32549 16.2717 4.92413 16.0892 4.5359L 15.4105 4.85492C 15.5659 5.1856 15.6744 5.52472 15.7367 5.86931L 16.4747 5.73576ZM 15.8299 5.06177C 16.328 4.95294 16.7948 4.70205 17.1761 4.32074L 16.6457 3.79041C 16.3657 4.0705 16.0273 4.25095 15.6698 4.32905L 15.8299 5.06177ZM 17.1735 4.32329C 18.2622 3.2554 18.26 1.50983 17.1833 0.43308L 16.6529 0.96341C 17.4382 1.74864 17.4359 3.01533 16.6483 3.78786L 17.1735 4.32329Z"/>
</defs>
</svg>
